<?xml version="1.0" encoding="utf-8"?>
<!-- Generator: Adobe Illustrator 25.0.0, SVG Export Plug-In . SVG Version: 6.00 Build 0)  -->
<svg version="1.1" id="Layer_1" xmlns="http://www.w3.org/2000/svg" xmlns:xlink="http://www.w3.org/1999/xlink" x="0px" y="0px"
	 viewBox="0 0 500 500" style="enable-background:new 0 0 500 500;" xml:space="preserve">
<style type="text/css">
	.st0{fill:#4327B2;}
	.st1{opacity:0.9;fill:#FFFFFF;enable-background:new    ;}
	.st2{opacity:0.15;enable-background:new    ;}
	.st3{fill:#DEDEFF;}
	.st4{fill:#FFFFFF;}
	.st5{fill:#00D48A;}
	.st6{opacity:0.7;fill:#FFFFFF;enable-background:new    ;}
	.st7{fill:#263238;}
	.st8{opacity:0.3;fill:#FFFFFF;enable-background:new    ;}
	.st9{opacity:0.1;fill:#FFFFFF;enable-background:new    ;}
	.st10{fill:#FFB573;}
	.st11{opacity:0.2;enable-background:new    ;}
	.st12{fill:#F5F5F5;}
	.st13{fill:#ED893E;}
	.st14{opacity:0.4;fill:#4327B2;enable-background:new    ;}
	.st15{opacity:0.6;}
	.st16{opacity:0.7;}
	.st17{opacity:0.15;fill:#4327B2;enable-background:new    ;}
	.st18{opacity:0.5;fill:#4327B2;enable-background:new    ;}
	.st19{fill:#0E1954;}
	.st20{fill:#472BB3;}
	.st21{fill:#00E18B;}
	.st22{fill:#00DEB5;}
</style>
<g id="freepik--background-simple--inject-40">
	<path class="st0" d="M253.8,180.6c-28.2-40.8-68.4-129-133.1-72.9c-64.2,55.8-16.1,154.6,24.8,188c41.3,33.7,174.2,64.2,192.8-20.9
		C351,216.3,284.9,225.7,253.8,180.6z"/>
	<path class="st1" d="M253.8,180.6c-28.2-40.8-68.4-129-133.1-72.9c-64.2,55.8-16.1,154.6,24.8,188c41.3,33.7,174.2,64.2,192.8-20.9
		C351,216.3,284.9,225.7,253.8,180.6z"/>
</g>
<g id="freepik--Shadow--inject-40" class="st2">
	<ellipse id="freepik--path--inject-40" class="st3" cx="250" cy="416.2" rx="150.2" ry="8.8"/>
</g>
<g id="freepik--cross-icon--inject-40">
	<circle class="st4" cx="340.7" cy="314.5" r="31.7"/>
	<path class="st5" d="M340.7,346.6c-17.7,0-32.1-14.3-32.1-32.1s14.3-32.1,32.1-32.1c17.7,0,32.1,14.3,32.1,32.1c0,0,0,0,0,0
		C372.8,332.2,358.4,346.6,340.7,346.6z M340.7,283.3c-17.3,0-31.3,14-31.3,31.3c0,17.3,14,31.3,31.3,31.3c17.3,0,31.3-14,31.3-31.3
		c0,0,0,0,0,0C372,297.3,358,283.3,340.7,283.3L340.7,283.3z"/>
	<rect x="335.6" y="296.6" class="st5" width="10.2" height="35.9"/>
	<rect x="322.8" y="309.4" class="st5" width="35.9" height="10.2"/>
</g>
<g id="freepik--pulse-icon--inject-40">
	<circle class="st6" cx="146.6" cy="96.9" r="33.9"/>
</g>
<g id="freepik--Character--inject-40">
	<path class="st7" d="M298.9,381.2H194.5c-6.8,0.1-12.3-5.4-12.4-12.1c0-0.4,0-0.7,0-1.1L199,118c0.6-7.4,6.7-13.1,14.1-13.2h104.4
		c6.8-0.1,12.3,5.3,12.4,12.1c0,0.4,0,0.8,0,1.1L313,368C312.4,375.4,306.3,381.1,298.9,381.2z"/>
	<path class="st7" d="M322,206.6h-2.6c-1.9,0-3.4-1.5-3.5-3.4c0-0.1,0-0.2,0-0.3l3.2-47.8c0.2-2.1,1.9-3.7,4-3.7h2.6
		c1.9,0,3.4,1.5,3.5,3.4c0,0.1,0,0.2,0,0.3l-3.2,47.8C325.8,204.9,324.1,206.5,322,206.6z"/>
	<path class="st0" d="M197.5,174.7h-2.6c-1.5,0-2.8-1.2-2.8-2.8c0-0.1,0-0.2,0-0.2l1.2-17.3c0.2-1.7,1.5-3,3.2-3h2.6
		c1.6,0,2.8,1.2,2.8,2.8c0,0.1,0,0.1,0,0.2l-1.2,17.3C200.6,173.4,199.2,174.7,197.5,174.7z"/>
	<path class="st0" d="M195.4,205.5h-2.6c-1.5,0-2.8-1.2-2.8-2.8c0-0.1,0-0.2,0-0.2l1.2-17.3c0.2-1.7,1.5-3,3.2-3h2.7
		c1.6,0,2.8,1.2,2.8,2.8c0,0.1,0,0.1,0,0.2l-1.2,17.3C198.5,204.2,197.1,205.5,195.4,205.5z"/>
	<path class="st0" d="M296.6,381.2H192.3c-6.8,0.1-12.3-5.4-12.4-12.1c0-0.4,0-0.7,0-1.1l16.9-250c0.6-7.4,6.8-13.1,14.2-13.2h104.3
		c6.8-0.1,12.3,5.4,12.4,12.1c0,0.4,0,0.7,0,1.1l-16.9,250C310.2,375.4,304.1,381.1,296.6,381.2z"/>
	<polygon class="st8" points="181,365.2 197.5,121.2 326.6,121.2 310.1,365.2 	"/>
	<polygon class="st9" points="232,365.2 278,121.2 306.9,121.2 260.9,365.2 	"/>
	<polygon class="st9" points="210.1,365.2 256.2,121.2 270.8,121.2 224.8,365.2 	"/>
	<path class="st4" d="M250.1,110.9h25.2c0.8,0,1.5,0.6,1.5,1.5c0,0.1,0,0.1,0,0.2l0,0c-0.1,0.9-0.8,1.6-1.7,1.6h-25.2
		c-0.8,0-1.5-0.7-1.5-1.5c0,0,0-0.1,0-0.1l0,0C248.5,111.6,249.2,110.9,250.1,110.9z"/>
	<polygon class="st10" points="244.9,405.2 236.1,406.1 232.9,385.7 241.7,384.9 	"/>
	<path class="st7" d="M235.1,401.8l9.2-2.9c0.3-0.1,0.7,0.1,0.8,0.4l3,7.3c0.3,0.8-0.1,1.7-0.9,2c0,0-0.1,0-0.1,0
		c-3.3,1-6.5,1.2-10.6,3c-4.7,2-6.7,4.7-11.8,4.7c-3.6,0-4.4-3.3-2.9-3.8c7-2.1,6.1-3.9,11.2-9.3
		C233.6,402.5,234.3,402.1,235.1,401.8z"/>
	<polygon class="st11" points="232.9,385.7 234.5,396.2 243.4,395.4 241.7,384.9 	"/>
	<path class="st4" d="M239.3,128.6c-11.6-1.4-23.1-0.4-34.6,1.8c-3.9,0.8-6.9,4-7.4,8c-1.2,11.1-2.7,35.8,2.9,72.8l47.3-4
		c0.1-6.7-4.7-37.3-0.7-69c0.7-4.6-2.5-8.9-7.2-9.6C239.4,128.6,239.4,128.6,239.3,128.6z"/>
	<path class="st7" d="M211.8,138.1l1.7,3.4c0.2,0.3,0.5,0.6,0.9,0.6l1.8,0.1c0.3,0,0.6-0.1,0.9-0.3l3.1-2.4l-3.9-2.8L211.8,138.1z"
		/>
	<path class="st7" d="M216.2,141.2c-0.7-0.3-1.4-0.4-2.1-0.2c-1.5,5.2-3.1,20.3-3.3,27c4.5,13.2,6,14.5,6,14.5l2.3-15.9
		C219.1,166.6,216.5,150.4,216.2,141.2z"/>
	<path class="st10" d="M229.3,105.8c-1.1,6.5-2,18.4,2.7,22.6c-3.4,3.6-7.9,7.8-15.6,8.2s-6.5-4.9-4.6-7.7c7.2-1.9,6.8-7.3,5.4-12.3
		L229.3,105.8z"/>
	<path class="st12" d="M233.9,127.9c-0.5-0.2-1.1-0.4-1.7-0.6c-0.3-0.1-0.6,0-0.8,0.3c-0.7,1.3-3,6.9-15.1,9c2,1.2,4.6,4.8,5.8,6.6
		c3.6-1.9,13.1-7.5,12.2-14.9C234.3,128.2,234.1,128,233.9,127.9z"/>
	<path class="st12" d="M211.8,129.3c0.1-0.4-0.2-0.8-0.5-0.8c-0.1,0-0.2,0-0.3,0c-0.4,0.1-0.8,0.2-1.2,0.3c-0.1,0-0.2,0.1-0.3,0.1
		c-0.9,0.9-6,8.2-1.2,14.1c1-1.6,4.4-5.3,8.1-6.3C212.9,135.1,211.2,132.3,211.8,129.3z"/>
	<path class="st11" d="M224.4,110.2l-7.1,6.4c0.3,1.2,0.6,2.4,0.7,3.6c2.8-0.5,6.5-3.6,6.7-6.5C224.7,112.6,224.7,111.4,224.4,110.2
		z"/>
	<path class="st7" d="M214.8,86.1c-6.2,2.4-6.6,7.5-6,13s6.6,1.9,7.9-1.6S223.3,82.8,214.8,86.1z"/>
	<path class="st10" d="M234.5,97.1c-1.7,8.7-2.3,13.9-7.3,17.9c-7.5,6-17.7,0.8-18.6-8.2c-0.8-8.1,2.1-21,11.1-23.5
		c6.2-1.8,12.7,1.7,14.6,7.9C234.8,93.2,234.9,95.2,234.5,97.1z"/>
	<path class="st7" d="M234.1,104.3c-7.3,0.4-5.8-3.8-4.4-6.2s-1.4-6.3,0.4-8.4c-3.2,1.3-6.5,0.2-10.7-2.7c-3.3-2.3-7.4,6.9-11.4,2.3
		c-3.8-4.3-0.3-10.9,8.8-11.9s10.7,5.4,16.7,4.8s3.9,4.3,2.7,5.3C241.1,87.9,243.9,92.7,234.1,104.3z"/>
	<path class="st7" d="M235,88.2c2.3-1.3,3.8-3.7,3.8-6.4C240.8,85.2,240.6,89.2,235,88.2z"/>
	<path class="st7" d="M216,106.4c1.6,0.3,3.3-0.1,4.6-1.1c0.1-0.1,0.1-0.2,0-0.3c0,0,0,0,0,0c-0.1-0.1-0.2-0.1-0.3,0
		c-1.5,1-3.4,1.3-5.1,0.8c-0.1,0-0.2,0-0.3,0.1c0,0.1,0,0.2,0.1,0.3C215.4,106.3,215.7,106.4,216,106.4z"/>
	<path class="st10" d="M236.2,107c-1.4,1.8-3.4,2.9-5.6,3.2c-2.9,0.4-3.9-2.3-2.7-4.9c1.1-2.3,4-5.2,6.7-4.4S237.9,104.8,236.2,107z
		"/>
	<path class="st7" d="M233.3,296.4c0.4-26.1,3.7-88.3,3.7-88.3l-36.9,3.1c0,0,7.3,64.1,11.8,90.7c4.6,27.7,18.7,92.6,18.7,92.6
		l15-1.3C245.6,393.2,240.1,316.6,233.3,296.4z"/>
	<polygon class="st0" points="229.7,394.9 247.5,393.4 246.8,387.6 228.3,388.9 	"/>
	<path class="st7" d="M221.3,97.6c-0.1,0.7-0.6,1.2-1,1.2s-0.8-0.7-0.7-1.4s0.6-1.2,1-1.2S221.4,96.9,221.3,97.6z"/>
	<path class="st7" d="M213.2,97c-0.1,0.7-0.6,1.2-1,1.2s-0.8-0.7-0.7-1.4s0.6-1.2,1-1.2S213.3,96.2,213.2,97z"/>
	<path class="st13" d="M215.5,97.8c-1.2,1.9-2.7,3.5-4.3,5c1.1,1.1,3.2,0.8,3.2,0.8L215.5,97.8z"/>
	<path class="st14" d="M208,97.2c-0.1,1.1,1,2.1,2.6,2.3s3.1-0.7,3.2-1.8"/>
	<path class="st14" d="M217.4,98.2c-0.2,1.1,0.9,2.2,2.4,2.4s3.1-0.5,3.3-1.6"/>
	<path class="st7" d="M220.5,101c-0.2,0-0.4,0-0.5,0c-0.8-0.1-1.5-0.4-2.1-0.9c-0.5-0.4-0.8-1.1-0.7-1.8c-0.5-0.2-1-0.4-1.6-0.4
		c-0.6-0.1-1.1-0.1-1.7,0c-0.1,1.2-1.7,2.1-3.4,1.8c-0.8-0.1-1.5-0.4-2.1-0.9c-0.5-0.4-0.8-1.1-0.7-1.8l0.5,0.1c0,0.5,0.2,1,0.6,1.4
		c0.5,0.4,1.1,0.7,1.8,0.8c1.4,0.2,2.7-0.5,2.9-1.5c0.1-0.6,1.2-0.5,2.2-0.4s2.1,0.4,2,0.9c0,0.5,0.2,1,0.6,1.4
		c1,0.9,2.5,1.1,3.8,0.5c0.5-0.2,0.8-0.7,0.9-1.2v-0.2l12.3,1.6l-0.1,0.5l-11.9-1.5c-0.2,0.6-0.6,1-1.1,1.3
		C221.7,100.9,221.1,101,220.5,101z"/>
	<path class="st7" d="M224.5,94.5c0.1,0,0.1,0,0.2-0.1c0.2-0.1,0.3-0.4,0.2-0.6c-0.6-1.2-1.8-2-3.1-2.1c-0.2,0-0.4,0.2-0.4,0.4
		c0,0.2,0.2,0.4,0.4,0.4l0,0c1.1,0.1,2,0.8,2.5,1.7C224.2,94.4,224.3,94.5,224.5,94.5z"/>
	<path class="st7" d="M210.5,93.4c0.1,0,0.3,0,0.4-0.2c0.7-0.9,1.7-1.4,2.8-1.3c0.2,0,0.4-0.1,0.5-0.4c0,0,0,0,0,0
		c0-0.2-0.1-0.4-0.4-0.5c0,0,0,0,0,0c-1.4,0-2.7,0.6-3.5,1.7c-0.1,0.2-0.1,0.4,0.1,0.6C210.4,93.3,210.4,93.4,210.5,93.4z"/>
	<path class="st7" d="M264,292.2c-7.6-39.3-9.4-70.1-16.6-85l-35.7,4c0,0,21.3,58.6,31.7,83.6c10.8,26,32.1,70.4,32.1,70.4h17.8
		C293.3,365.2,276.6,310.1,264,292.2z"/>
	<path class="st10" d="M150.9,143.3l-3.9-2.4c-1.3-0.8-3-0.6-4.1,0.5l-2.6,2.8c-1.1,1.2-1.1,3.1,0.1,4.2c0,0,0.1,0.1,0.1,0.1
		l1.9,1.6c1.6,1.4,3.5,2.4,5.6,3l5.6,1.7l3.7-4C158.5,146.6,150.9,143.3,150.9,143.3z"/>
	<path class="st0" d="M208,141.4c-1.4,3.4-2.8,6.6-4.3,9.9s-3,6.5-4.7,9.6s-3.4,6.4-5.5,9.5c-1,1.6-2.1,3.2-3.4,4.8
		c-1.4,1.8-2.9,3.4-4.6,4.8c-1.1,0.9-2.4,1.7-3.7,2.3c-0.4,0.2-0.8,0.3-1.3,0.5l-0.7,0.2c-0.4,0.1-0.7,0.1-1.1,0.2
		c-1.2,0.1-2.5,0-3.6-0.3c-1.5-0.4-2.9-1.1-4.2-1.9c-1-0.6-1.9-1.3-2.8-2c-2.9-2.5-5.5-5.3-7.9-8.3c-2.3-2.8-4.5-5.6-6.6-8.5
		s-4.1-5.7-6.2-8.7l11.1-7.1c3.5,5.6,7.4,11,11.6,16.1c1.9,2.4,4.1,4.6,6.4,6.6c0.4,0.4,0.9,0.7,1.4,1c0.4,0.2,0.7,0.4,0.5,0.3
		c-0.4-0.1-0.7-0.1-1.1-0.1c-0.1,0-0.3,0-0.4,0.1h-0.1c-0.1,0-0.1,0-0.1,0c0.2-0.1,0.4-0.3,0.6-0.5c0.9-0.8,1.7-1.7,2.5-2.7
		c0.9-1.1,1.7-2.4,2.5-3.8c1.7-2.8,3.2-5.6,4.5-8.5c1.4-3,2.8-6,4-9.1s2.4-6.3,3.4-9.3L208,141.4z"/>
	<g class="st15">
		<path class="st4" d="M208,141.4c-1.4,3.4-2.8,6.6-4.3,9.9s-3,6.5-4.7,9.6s-3.4,6.4-5.5,9.5c-1,1.6-2.1,3.2-3.4,4.8
			c-1.4,1.8-2.9,3.4-4.6,4.8c-1.1,0.9-2.4,1.7-3.7,2.3c-0.4,0.2-0.8,0.3-1.3,0.5l-0.7,0.2c-0.4,0.1-0.7,0.1-1.1,0.2
			c-1.2,0.1-2.5,0-3.6-0.3c-1.5-0.4-2.9-1.1-4.2-1.9c-1-0.6-1.9-1.3-2.8-2c-2.9-2.5-5.5-5.3-7.9-8.3c-2.3-2.8-4.5-5.6-6.6-8.5
			s-4.1-5.7-6.2-8.7l11.1-7.1c3.5,5.6,7.4,11,11.6,16.1c1.9,2.4,4.1,4.6,6.4,6.6c0.4,0.4,0.9,0.7,1.4,1c0.4,0.2,0.7,0.4,0.5,0.3
			c-0.4-0.1-0.7-0.1-1.1-0.1c-0.1,0-0.3,0-0.4,0.1h-0.1c-0.1,0-0.1,0-0.1,0c0.2-0.1,0.4-0.3,0.6-0.5c0.9-0.8,1.7-1.7,2.5-2.7
			c0.9-1.1,1.7-2.4,2.5-3.8c1.7-2.8,3.2-5.6,4.5-8.5c1.4-3,2.8-6,4-9.1s2.4-6.3,3.4-9.3L208,141.4z"/>
	</g>
	<path class="st0" d="M234.2,126.1c-3.8,7-17.1,33.7-18.7,50.1c-5.9-15-4.6-48.2-4.6-48.2c-4.2,0.4-8.3,1.4-12.3,3
		c-2.6,1.1-4.3,3.5-4.6,6.3c-1.2,17.2-0.6,34.4,1.6,51.5c4.1,32.3,8,82.5,8,82.5s33.1-1.4,58.5-6.8c-3.1-24.7-13.8-66.1-13.9-77.1
		c-0.1-14.3,0.2-42.1,0.7-53.8c0.2-3.4-2.2-6.4-5.5-7.1C240.4,126,237.3,125.8,234.2,126.1z"/>
	<path class="st6" d="M234.2,126.1c-3.8,7-17.1,33.7-18.7,50.1c-5.9-15-4.6-48.2-4.6-48.2c-4.2,0.4-8.3,1.4-12.3,3
		c-2.6,1.1-4.3,3.5-4.6,6.3c-1.2,17.2-0.6,34.4,1.6,51.5c4.1,32.3,8,82.5,8,82.5s33.1-1.4,58.5-6.8c-3.1-24.7-13.8-66.1-13.9-77.1
		c-0.1-14.3,0.2-42.1,0.7-53.8c0.2-3.3-2-6.2-5.2-7C240.6,126,237.4,125.8,234.2,126.1z"/>
	<path class="st4" d="M226.4,265.9c-5.7-31.7-10.3-78.1-10.7-83.7h0.5c0.4,5.6,4.9,52,10.7,83.7L226.4,265.9z"/>
	<path class="st4" d="M223.5,209.6h-30.5c-1.3-0.1-2.3-0.9-2.6-2.2l-10.2-47.4c-0.3-0.9,0.3-1.8,1.2-2.1c0.2-0.1,0.4-0.1,0.5-0.1
		h30.5c1.3,0.1,2.3,0.9,2.6,2.2l10.2,47.4c0.3,0.9-0.3,1.8-1.2,2.1C223.9,209.6,223.7,209.6,223.5,209.6z"/>
	<path class="st0" d="M222.6,210h-31c-1.3-0.1-2.4-1-2.7-2.2l-10.4-48.2c-0.3-0.9,0.3-1.9,1.2-2.1c0.2,0,0.4-0.1,0.5-0.1h31
		c1.3,0.1,2.4,1,2.7,2.2l10.4,48.2c0.3,0.9-0.3,1.9-1.2,2.1C223,210,222.8,210,222.6,210z"/>
	<path class="st10" d="M226.1,182.8l-7.7-0.3c-0.9,0-1.9,0.1-2.7,0.5l-4,1.6c-1.5,0.6-2.3,2.4-1.7,3.9c0,0,0,0.1,0,0.1l1.6,3.5
		c0.7,1.4,2.2,2.1,3.7,1.7l4.4-1.1c0,0,8.3-0.7,8.6-5L226.1,182.8z"/>
	<path class="st0" d="M247.4,130.4c1.9,3,3.7,5.7,5.4,8.7s3.4,5.9,5,8.9s3.1,6.2,4.5,9.5c0.7,1.8,1.3,3.6,1.8,5.4
		c0.6,2.2,0.9,4.5,0.9,6.9v0.4c0,0.1,0,0.1,0,0.2c0,0.4-0.1,0.7-0.2,1.1s-0.2,0.6-0.3,1s-0.2,0.6-0.3,0.8c-0.4,0.9-0.9,1.7-1.5,2.4
		c-0.8,1-1.7,1.9-2.8,2.8c-1.6,1.2-3.2,2.3-5,3.3c-3.1,1.7-6.3,3.2-9.5,4.5c-3.1,1.3-6.3,2.6-9.4,3.7s-6.3,2.3-9.6,3.4l-3.8-12.6
		c3-0.8,6.1-1.8,9.1-2.9s6-2.2,8.8-3.4c2.8-1.2,5.5-2.5,8.1-3.9c1.1-0.6,2.2-1.3,3.2-2.1c0.3-0.2,0.5-0.4,0.7-0.7
		c-0.1,0.1-0.2,0.2-0.2,0.3c0,0.1-0.1,0.1-0.1,0.3c0,0.1-0.1,0.2-0.1,0.4c0,0.2-0.1,0.3-0.1,0.5c0,0.1,0,0.1,0,0.1v-0.1
		c-0.1-0.9-0.3-1.9-0.6-2.8c-0.4-1.3-0.9-2.6-1.4-3.9c-1.2-2.8-2.6-5.5-4.1-8.1c-1.6-2.7-3.2-5.4-5-8s-3.6-5.3-5.4-7.7L247.4,130.4z
		"/>
	<g class="st16">
		<path class="st4" d="M247.4,130.4c1.9,3,3.7,5.7,5.4,8.7s3.4,5.9,5,8.9s3.1,6.2,4.5,9.5c0.7,1.8,1.3,3.6,1.8,5.4
			c0.6,2.2,0.9,4.5,0.9,6.9v0.4c0,0.1,0,0.1,0,0.2c0,0.4-0.1,0.7-0.2,1.1s-0.2,0.6-0.3,1s-0.2,0.6-0.3,0.8c-0.4,0.9-0.9,1.7-1.5,2.4
			c-0.8,1-1.7,1.9-2.8,2.8c-1.6,1.2-3.2,2.3-5,3.3c-3.1,1.7-6.3,3.2-9.5,4.5c-3.1,1.3-6.3,2.6-9.4,3.7s-6.3,2.3-9.6,3.4l-3.8-12.6
			c3-0.8,6.1-1.8,9.1-2.9s6-2.2,8.8-3.4c2.8-1.2,5.5-2.5,8.1-3.9c1.1-0.6,2.2-1.3,3.2-2.1c0.3-0.2,0.5-0.4,0.7-0.7
			c-0.1,0.1-0.2,0.2-0.2,0.3c0,0.1-0.1,0.1-0.1,0.3c0,0.1-0.1,0.2-0.1,0.4c0,0.2-0.1,0.3-0.1,0.5c0,0.1,0,0.1,0,0.1v-0.1
			c-0.1-0.9-0.3-1.9-0.6-2.8c-0.4-1.3-0.9-2.6-1.4-3.9c-1.2-2.8-2.6-5.5-4.1-8.1c-1.6-2.7-3.2-5.4-5-8s-3.6-5.3-5.4-7.7L247.4,130.4
			z"/>
	</g>
	<path class="st7" d="M237.3,165.1c-0.1,0-0.3-0.1-0.3-0.2c-0.1-0.2-0.1-0.4,0.1-0.5c0,0,0,0,0,0l1.6-1c3-1.9,4.5-5.4,3.8-8.9
		l-3.1-15.9c-0.6-2.9-3.4-4.8-6.3-4.3c-2,0.4-3.6,1.9-4.2,3.8l-4.4,15.6c-1,3.4,0.2,7,3,9.1l1.5,1.1c0.2,0.1,0.2,0.4,0.1,0.6
		c-0.1,0.2-0.4,0.2-0.5,0.1c0,0,0,0,0,0l-1.4-1.1c-3.1-2.3-4.4-6.3-3.3-10l4.5-15.6c0.9-3.3,4.4-5.2,7.6-4.2
		c2.2,0.6,3.9,2.5,4.4,4.7l3.1,15.9c0.8,3.8-0.9,7.6-4.1,9.7l-1.6,1C237.5,165.1,237.4,165.1,237.3,165.1z"/>
	<path class="st7" d="M239.7,138.9L239.7,138.9l-11.2-0.5c-0.2,0-0.4-0.2-0.4-0.4c0,0,0,0,0,0c0-0.2,0.2-0.4,0.4-0.4l11.2,0.5
		c0.2,0,0.4,0.2,0.4,0.4c0,0,0,0,0,0C240.1,138.7,239.9,138.9,239.7,138.9C239.7,138.9,239.7,138.9,239.7,138.9z"/>
	<path class="st7" d="M234.2,134.2c-0.2,0-0.4-0.2-0.4-0.4c0-2-0.6-5.5-2.5-6.2c-0.2-0.1-0.3-0.3-0.3-0.5c0.1-0.2,0.3-0.3,0.5-0.3
		c0,0,0,0,0,0c2.8,1.1,3,6.4,3,7C234.7,134.1,234.5,134.3,234.2,134.2L234.2,134.2z"/>
	<path class="st7" d="M199.9,147.8L199.9,147.8c-0.3,0-0.4-0.3-0.4-0.5c1.3-6.6,6.8-16.9,11.6-20c0.2-0.1,0.4-0.1,0.5,0.1
		c0,0,0,0,0,0c0.1,0.2,0.1,0.4-0.1,0.5c0,0,0,0,0,0c-4.6,2.9-9.9,13-11.2,19.5C200.2,147.7,200.1,147.8,199.9,147.8z"/>
	<path class="st4" d="M203.2,148.9c-0.6,1.6-2,2.6-3,2.1s-1.4-2-0.8-3.6s2-2.6,3-2.1S203.8,147.3,203.2,148.9z"/>
	<path class="st4" d="M229.6,164.4c0,0.7-0.5,1.3-0.9,1.3s-0.9-0.6-0.8-1.4s0.5-1.3,0.9-1.3S229.6,163.6,229.6,164.4z"/>
	<path class="st4" d="M238.2,164.7c0,0.7-0.4,1.3-0.9,1.3s-0.9-0.6-0.8-1.4s0.4-1.3,1-1.3S238.2,164,238.2,164.7z"/>
</g>
<g id="freepik--Chat--inject-40">
	<path class="st0" d="M407.8,150.9l-1-0.1c0.7-8.5-5.7-15.9-14.2-16.6c-0.4,0-0.9,0-1.3,0v-1c9.1-0.1,16.5,7.2,16.5,16.3
		C407.8,149.9,407.8,150.4,407.8,150.9z"/>
	
		<rect x="404.4" y="158.7" transform="matrix(6.982913e-02 -0.9976 0.9976 6.982913e-02 221.1528 555.6102)" class="st0" width="8.3" height="1"/>
	<path class="st0" d="M391.3,136.7h-69c-7.8,0.1-14.2,6.2-14.9,13.9l-0.6,9.3c-0.6,7.1,4.7,13.3,11.8,13.9c0.4,0,0.8,0,1.2,0h69
		l13.4,8.2l2.1-31.5c0.6-7.1-4.7-13.3-11.8-13.9C392.1,136.7,391.7,136.7,391.3,136.7z"/>
	<rect x="323.9" y="150" class="st4" width="63.9" height="2.3"/>
	<rect x="339.8" y="158.2" class="st4" width="47.5" height="2.3"/>
	<path class="st4" d="M287.5,186.4H358c7.3-0.1,13.3,5.8,13.3,13c0,0.4,0,0.8,0,1.2l-0.6,9.5c-0.7,8-7.2,14.1-15.2,14.2h-70.5
		l-14.8,8.4l2.2-32.2C272.9,192.7,279.5,186.5,287.5,186.4z"/>
	<path class="st17" d="M287.5,186.4H358c7.3-0.1,13.3,5.8,13.3,13c0,0.4,0,0.8,0,1.2l-0.6,9.5c-0.7,8-7.2,14.1-15.2,14.2h-70.5
		l-14.8,8.4l2.2-32.2C272.9,192.7,279.5,186.5,287.5,186.4z"/>
	<rect x="289.1" y="200" class="st18" width="65.4" height="2.4"/>
	<rect x="288.5" y="208.4" class="st18" width="25.8" height="2.4"/>
	<rect x="320.6" y="208.4" class="st18" width="16.5" height="2.4"/>
</g>
<g>
	<path class="st19" d="M151.2,93.9c0,0.2,0,0.4,0,0.6"/>
	<path class="st19" d="M140.9,111"/>
	<g>
		<path class="st20" d="M164.5,99.1c-6.4,12.4-15.7,18.6-22.1,16.6c-5.7-1.8-10.4-7.6-12.1-10.2c-5.3-7.9-4.9-18.5-2.5-19.7
			c0.6,2.2,1.5,6,6.8,8.9c3.5,2,6.7,2.2,10.8,0.3c2.1-0.9,4.2-1.9,7-3.9C162.8,83.8,176.7,75.5,164.5,99.1z"/>
		<path class="st21" d="M145.4,95.1c-4.1,1.9-7.3,1.6-10.8-0.3c-5.3-3-6.1-6.7-6.8-8.9C127.8,85.8,137,84.7,145.4,95.1z"/>
	</g>
	<path class="st22" d="M151.3,82.8c0,2.6-2.1,4.7-4.7,4.7c-2.6,0-4.7-2.1-4.7-4.7c0-2.6,2.1-4.7,4.7-4.7
		C149.1,78.1,151.3,80.2,151.3,82.8z"/>
</g>
</svg>
