<svg xmlns="http://www.w3.org/2000/svg" width="38.021" height="38.021" viewBox="0 0 38.021 38.021">
  <path id="Icon_material-photo-library" data-name="Icon material-photo-library" d="M41.021,29.614V6.8a3.813,3.813,0,0,0-3.8-3.8H14.406a3.813,3.813,0,0,0-3.8,3.8V29.614a3.813,3.813,0,0,0,3.8,3.8H37.219A3.813,3.813,0,0,0,41.021,29.614Zm-20.911-7.6,3.859,5.152,5.646-7.053,7.6,9.505H14.406ZM3,10.6V37.219a3.813,3.813,0,0,0,3.8,3.8H33.417v-3.8H6.8V10.6Z" transform="translate(-3 -3)" opacity="0.307"/>
</svg>
