<svg xmlns="http://www.w3.org/2000/svg" width="199.081" height="42.555" viewBox="0 0 199.081 42.555">
  <g id="LogoAndType" transform="translate(0 0)">
    <path id="Path_386" data-name="Path 386" d="M360.347,330.3c-.023.233-.023.466-.047.676" transform="translate(-334.292 -312.584)" fill="#0e1954"/>
    <path id="Path_387" data-name="Path 387" d="M313,409.4" transform="translate(-298.017 -373.247)" fill="#0e1954"/>
    <g id="Group_86" data-name="Group 86" transform="translate(54.445 9.767)">
      <path id="Path_388" data-name="Path 388" d="M483.883,313.4a11.231,11.231,0,0,1,4.336-4.336A12.471,12.471,0,0,1,494.4,307.5a12.124,12.124,0,0,1,7.016,2.051,10.717,10.717,0,0,1,4.2,5.687h-5.5a5.522,5.522,0,0,0-2.308-2.564,7.375,7.375,0,0,0-7.133.117,6.748,6.748,0,0,0-2.541,2.751,9.975,9.975,0,0,0,0,8.321,6.656,6.656,0,0,0,2.541,2.774,7.043,7.043,0,0,0,3.706.979,6.567,6.567,0,0,0,3.426-.862,5.7,5.7,0,0,0,2.308-2.587h5.5a10.544,10.544,0,0,1-4.2,5.688,13.079,13.079,0,0,1-13.193.466,11.079,11.079,0,0,1-4.336-4.336,12.558,12.558,0,0,1-1.585-6.294A12.1,12.1,0,0,1,483.883,313.4Z" transform="translate(-482.297 -304.866)"/>
      <path id="Path_389" data-name="Path 389" d="M604.678,302.6v25.314H599.9V302.6Z" transform="translate(-572.487 -301.108)"/>
      <path id="Path_390" data-name="Path 390" d="M639.339,301a2.814,2.814,0,0,1,0-4.009,2.9,2.9,0,0,1,2.1-.793,3,3,0,0,1,2.1.793,2.814,2.814,0,0,1,0,4.009,3.173,3.173,0,0,1-4.2,0Zm4.452,3.054v18.951h-4.779V304.055Z" transform="translate(-602.09 -296.2)"/>
      <path id="Path_391" data-name="Path 391" d="M697.544,330.844a8.123,8.123,0,0,1,2.075,5.967V347.93H694.84V337.464a4.938,4.938,0,0,0-1.119-3.473,3.953,3.953,0,0,0-3.077-1.212,4.058,4.058,0,0,0-3.124,1.212,4.84,4.84,0,0,0-1.142,3.473V347.93H681.6V328.98h4.755v2.354A6.511,6.511,0,0,1,688.8,329.4a7.592,7.592,0,0,1,3.263-.7A7.339,7.339,0,0,1,697.544,330.844Z" transform="translate(-635.144 -321.124)"/>
      <path id="Path_392" data-name="Path 392" d="M777.039,301a2.814,2.814,0,0,1,0-4.009,2.9,2.9,0,0,1,2.1-.793,3,3,0,0,1,2.1.793,2.814,2.814,0,0,1,0,4.009,3.173,3.173,0,0,1-4.2,0Zm4.475,3.054v18.951h-4.778V304.055Z" transform="translate(-707.693 -296.2)"/>
      <path id="Path_393" data-name="Path 393" d="M819.786,318.348v9.161a1.812,1.812,0,0,0,.466,1.375,2.278,2.278,0,0,0,1.562.42h2.215v4.033h-3.007c-4.033,0-6.06-1.958-6.06-5.874v-9.137H812.7v-3.939h2.261V309.7h4.825v4.685h4.242v3.939h-4.242Z" transform="translate(-735.685 -306.553)"/>
      <path id="Path_394" data-name="Path 394" d="M874.739,301a2.814,2.814,0,0,1,0-4.009,2.9,2.9,0,0,1,2.1-.793,3,3,0,0,1,2.1.793,2.814,2.814,0,0,1,0,4.009,3.173,3.173,0,0,1-4.2,0Zm4.475,3.054v18.951h-4.778V304.055Z" transform="translate(-782.619 -296.2)"/>
      <path id="Path_395" data-name="Path 395" d="M913.075,333.239a8.674,8.674,0,0,1,3.31-3.427,9.54,9.54,0,0,1,4.848-1.212,9.228,9.228,0,0,1,5.827,1.772,8.606,8.606,0,0,1,3.1,4.942h-5.151a3.942,3.942,0,0,0-1.375-1.935,4.007,4.007,0,0,0-2.4-.7,3.89,3.89,0,0,0-3.24,1.492,8.041,8.041,0,0,0,0,8.415,3.92,3.92,0,0,0,3.24,1.492,3.647,3.647,0,0,0,3.8-2.587h5.175a8.873,8.873,0,0,1-3.1,4.9,9.181,9.181,0,0,1-5.8,1.818,9.479,9.479,0,0,1-4.848-1.212,8.518,8.518,0,0,1-3.31-3.427,10.7,10.7,0,0,1-1.189-5.151A9.495,9.495,0,0,1,913.075,333.239Z" transform="translate(-811.794 -321.048)"/>
      <path id="Path_396" data-name="Path 396" d="M1016.412,327.914l-6.434-8.065v8.065H1005.2V302.6h4.779v14.405l6.363-8.042h6.224l-8.345,9.51,8.415,9.44Z" transform="translate(-883.314 -301.108)"/>
    </g>
    <g id="Group_88" data-name="Group 88" transform="translate(194.792 11.492)">
      <g id="Group_87" data-name="Group 87" transform="translate(0)">
        <path id="Path_397" data-name="Path 397" d="M1088.689,305.766a2.145,2.145,0,1,1-2.145-2.168A2.048,2.048,0,0,1,1088.689,305.766Zm-2.168,1.841a1.843,1.843,0,1,0-1.771-1.841A1.719,1.719,0,0,0,1086.521,307.608Zm.373-1.585a.716.716,0,0,0-.163-1.422h-1.026v2.261h.349v-.816h.443l.7.816h.373v-.07Zm-.163-1.1a.409.409,0,1,1-.023.816h-.676v-.816Z" transform="translate(-1084.4 -303.598)"/>
      </g>
    </g>
    <g id="Group_90" data-name="Group 90" transform="translate(0 0)">
      <path id="Path_398" data-name="Path 398" d="M369.347,330.2c-.023.233-.047.49-.047.723" transform="translate(-341.194 -312.508)" fill="#0e1954"/>
      <path id="Path_399" data-name="Path 399" d="M320,412.5" transform="translate(-303.386 -375.624)" fill="#0e1954"/>
      <g id="Group_89" data-name="Group 89" transform="translate(0 6.037)">
        <path id="Path_400" data-name="Path 400" d="M291.7,297.7c-7.133,13.846-17.622,20.839-24.708,18.6-6.363-2.028-11.608-8.485-13.589-11.445-5.9-8.788-5.5-20.745-2.751-22.027.7,2.471,1.632,6.713,7.576,10,3.939,2.191,7.506,2.448,12.121.35a42.772,42.772,0,0,0,7.855-4.405C289.883,280.5,305.361,271.2,291.7,297.7Z" transform="translate(-248.724 -280.198)" fill="#472bb3"/>
        <path id="Path_401" data-name="Path 401" d="M276.5,301.7c-4.615,2.1-8.182,1.841-12.121-.35-5.921-3.31-6.853-7.529-7.576-10C256.823,291.323,267.1,290.111,276.5,301.7Z" transform="translate(-254.917 -288.712)" fill="#00e18b"/>
      </g>
      <path id="Path_402" data-name="Path 402" d="M334.782,259.591a5.291,5.291,0,1,1-5.291-5.291A5.3,5.3,0,0,1,334.782,259.591Z" transform="translate(-306.607 -254.299)" fill="#00deb5"/>
    </g>
  </g>
</svg>
